<svg width="200" height="150" viewBox="0 0 200 150" xmlns="http://www.w3.org/2000/svg">
  <!-- Body -->
  <ellipse cx="100" cy="90" rx="60" ry="40" fill="#fff" stroke="#000" stroke-width="2"/>
  <!-- Spots -->
  <ellipse cx="120" cy="90" rx="15" ry="10" fill="#222"/>
  <ellipse cx="80" cy="100" rx="10" ry="7" fill="#222"/>
  <!-- Head -->
  <ellipse cx="60" cy="60" rx="25" ry="20" fill="#fff" stroke="#000" stroke-width="2"/>
  <!-- Eyes -->
  <ellipse cx="52" cy="60" rx="3" ry="5" fill="#000"/>
  <ellipse cx="68" cy="60" rx="3" ry="5" fill="#000"/>
  <!-- Nostrils -->
  <ellipse cx="58" cy="72" rx="2" ry="1" fill="#000"/>
  <ellipse cx="64" cy="72" rx="2" ry="1" fill="#000"/>
  <!-- Ears -->
  <ellipse cx="40" cy="50" rx="7" ry="4" fill="#fff" stroke="#000" stroke-width="2"/>
  <ellipse cx="80" cy="50" rx="7" ry="4" fill="#fff" stroke="#000" stroke-width="2"/>
  <!-- Horns -->
  <path d="M45 45 Q40 35 50 40" stroke="#aaa" stroke-width="2" fill="none"/>
  <path d="M75 45 Q80 35 70 40" stroke="#aaa" stroke-width="2" fill="none"/>
  <!-- Legs -->
  <rect x="70" y="120" width="8" height="25" fill="#fff" stroke="#000" stroke-width="2"/>
  <rect x="122" y="120" width="8" height="25" fill="#fff" stroke="#000" stroke-width="2"/>
  <rect x="90" y="125" width="8" height="20" fill="#fff" stroke="#000" stroke-width="2"/>
  <rect x="110" y="125" width="8" height="20" fill="#fff" stroke="#000" stroke-width="2"/>
  <!-- Tail -->
  <path d="M160 100 Q180 110 170 130" stroke="#000" stroke-width="2" fill="none"/>
  <ellipse cx="172" cy="132" rx="4" ry="2" fill="#222"/>
</svg>
